<mxfile host="app.diagrams.net" modified="2023-12-26T19:49:17.771Z" agent="Mozilla/5.0 (Windows NT 10.0; Win64; x64) AppleWebKit/537.36 (KHTML, like Gecko) Chrome/120.0.0.0 Safari/537.36" etag="SyXq-WRANvwVNYsKUTOs" version="22.1.11" type="github">
  <diagram name="Страница — 1" id="qyjsrLol-l17O-QAmHuS">
    <mxGraphModel dx="1050" dy="1699" grid="1" gridSize="10" guides="1" tooltips="1" connect="1" arrows="1" fold="1" page="1" pageScale="1" pageWidth="827" pageHeight="1169" math="0" shadow="0">
      <root>
        <mxCell id="0" />
        <mxCell id="1" parent="0" />
        <mxCell id="70L6qFqrPIOr7-39Y_Ha-1" value="User" style="swimlane;fontStyle=0;childLayout=stackLayout;horizontal=1;startSize=30;horizontalStack=0;resizeParent=1;resizeParentMax=0;resizeLast=0;collapsible=1;marginBottom=0;whiteSpace=wrap;html=1;" vertex="1" parent="1">
          <mxGeometry x="30" y="930" width="230" height="200" as="geometry" />
        </mxCell>
        <mxCell id="70L6qFqrPIOr7-39Y_Ha-2" value="id &lt;span style=&quot;white-space: pre;&quot;&gt;&#x9;&lt;/span&gt;(autoinc., index, uniq, pk, int)" style="text;strokeColor=none;fillColor=none;align=left;verticalAlign=middle;spacingLeft=4;spacingRight=4;overflow=hidden;points=[[0,0.5],[1,0.5]];portConstraint=eastwest;rotatable=0;whiteSpace=wrap;html=1;" vertex="1" parent="70L6qFqrPIOr7-39Y_Ha-1">
          <mxGeometry y="30" width="230" height="50" as="geometry" />
        </mxCell>
        <mxCell id="70L6qFqrPIOr7-39Y_Ha-3" value="login&lt;span style=&quot;white-space: pre;&quot;&gt;&#x9;&lt;/span&gt;(char 225, uniq)" style="text;strokeColor=none;fillColor=none;align=left;verticalAlign=middle;spacingLeft=4;spacingRight=4;overflow=hidden;points=[[0,0.5],[1,0.5]];portConstraint=eastwest;rotatable=0;whiteSpace=wrap;html=1;" vertex="1" parent="70L6qFqrPIOr7-39Y_Ha-1">
          <mxGeometry y="80" width="230" height="30" as="geometry" />
        </mxCell>
        <mxCell id="70L6qFqrPIOr7-39Y_Ha-4" value="promotion&lt;span style=&quot;white-space: pre;&quot;&gt;&#x9;&lt;/span&gt;(fk)" style="text;strokeColor=none;fillColor=none;align=left;verticalAlign=middle;spacingLeft=4;spacingRight=4;overflow=hidden;points=[[0,0.5],[1,0.5]];portConstraint=eastwest;rotatable=0;whiteSpace=wrap;html=1;" vertex="1" parent="70L6qFqrPIOr7-39Y_Ha-1">
          <mxGeometry y="110" width="230" height="30" as="geometry" />
        </mxCell>
        <mxCell id="70L6qFqrPIOr7-39Y_Ha-9" value="password (char 225, uniq)" style="text;strokeColor=none;fillColor=none;align=left;verticalAlign=middle;spacingLeft=4;spacingRight=4;overflow=hidden;points=[[0,0.5],[1,0.5]];portConstraint=eastwest;rotatable=0;whiteSpace=wrap;html=1;" vertex="1" parent="70L6qFqrPIOr7-39Y_Ha-1">
          <mxGeometry y="140" width="230" height="30" as="geometry" />
        </mxCell>
        <mxCell id="70L6qFqrPIOr7-39Y_Ha-38" value="name&lt;span style=&quot;white-space: pre;&quot;&gt;&#x9;&lt;/span&gt;(char 255)" style="text;strokeColor=none;fillColor=none;align=left;verticalAlign=middle;spacingLeft=4;spacingRight=4;overflow=hidden;points=[[0,0.5],[1,0.5]];portConstraint=eastwest;rotatable=0;whiteSpace=wrap;html=1;" vertex="1" parent="70L6qFqrPIOr7-39Y_Ha-1">
          <mxGeometry y="170" width="230" height="30" as="geometry" />
        </mxCell>
        <mxCell id="70L6qFqrPIOr7-39Y_Ha-65" style="edgeStyle=orthogonalEdgeStyle;rounded=0;orthogonalLoop=1;jettySize=auto;html=1;entryX=0.5;entryY=0;entryDx=0;entryDy=0;" edge="1" parent="1" source="70L6qFqrPIOr7-39Y_Ha-5" target="70L6qFqrPIOr7-39Y_Ha-51">
          <mxGeometry relative="1" as="geometry" />
        </mxCell>
        <mxCell id="70L6qFqrPIOr7-39Y_Ha-66" style="edgeStyle=orthogonalEdgeStyle;rounded=0;orthogonalLoop=1;jettySize=auto;html=1;entryX=0.5;entryY=0;entryDx=0;entryDy=0;" edge="1" parent="1" source="70L6qFqrPIOr7-39Y_Ha-5" target="70L6qFqrPIOr7-39Y_Ha-59">
          <mxGeometry relative="1" as="geometry" />
        </mxCell>
        <mxCell id="70L6qFqrPIOr7-39Y_Ha-90" style="edgeStyle=orthogonalEdgeStyle;rounded=0;orthogonalLoop=1;jettySize=auto;html=1;entryX=0.5;entryY=0;entryDx=0;entryDy=0;" edge="1" parent="1" source="70L6qFqrPIOr7-39Y_Ha-5" target="70L6qFqrPIOr7-39Y_Ha-85">
          <mxGeometry relative="1" as="geometry" />
        </mxCell>
        <mxCell id="70L6qFqrPIOr7-39Y_Ha-5" value="server" style="rounded=1;whiteSpace=wrap;html=1;" vertex="1" parent="1">
          <mxGeometry x="390" y="-190" width="120" height="60" as="geometry" />
        </mxCell>
        <mxCell id="70L6qFqrPIOr7-39Y_Ha-11" value="Product" style="swimlane;fontStyle=0;childLayout=stackLayout;horizontal=1;startSize=30;horizontalStack=0;resizeParent=1;resizeParentMax=0;resizeLast=0;collapsible=1;marginBottom=0;whiteSpace=wrap;html=1;" vertex="1" parent="1">
          <mxGeometry x="610" y="940" width="290" height="200" as="geometry" />
        </mxCell>
        <mxCell id="70L6qFqrPIOr7-39Y_Ha-15" value="id &lt;span style=&quot;white-space: pre;&quot;&gt;&#x9;&lt;/span&gt;(autoinc., index, uniq, pk, int)" style="text;strokeColor=none;fillColor=none;align=left;verticalAlign=middle;spacingLeft=4;spacingRight=4;overflow=hidden;points=[[0,0.5],[1,0.5]];portConstraint=eastwest;rotatable=0;whiteSpace=wrap;html=1;" vertex="1" parent="70L6qFqrPIOr7-39Y_Ha-11">
          <mxGeometry y="30" width="290" height="50" as="geometry" />
        </mxCell>
        <mxCell id="70L6qFqrPIOr7-39Y_Ha-16" value="name&lt;span style=&quot;white-space: pre;&quot;&gt;&#x9;&lt;/span&gt;(char 225)" style="text;strokeColor=none;fillColor=none;align=left;verticalAlign=middle;spacingLeft=4;spacingRight=4;overflow=hidden;points=[[0,0.5],[1,0.5]];portConstraint=eastwest;rotatable=0;whiteSpace=wrap;html=1;" vertex="1" parent="70L6qFqrPIOr7-39Y_Ha-11">
          <mxGeometry y="80" width="290" height="30" as="geometry" />
        </mxCell>
        <mxCell id="70L6qFqrPIOr7-39Y_Ha-13" value="price&lt;span style=&quot;white-space: pre;&quot;&gt;&#x9;&lt;/span&gt;(positive_int)" style="text;strokeColor=none;fillColor=none;align=left;verticalAlign=middle;spacingLeft=4;spacingRight=4;overflow=hidden;points=[[0,0.5],[1,0.5]];portConstraint=eastwest;rotatable=0;whiteSpace=wrap;html=1;" vertex="1" parent="70L6qFqrPIOr7-39Y_Ha-11">
          <mxGeometry y="110" width="290" height="30" as="geometry" />
        </mxCell>
        <mxCell id="70L6qFqrPIOr7-39Y_Ha-14" value="count&lt;span style=&quot;white-space: pre;&quot;&gt;&#x9;&lt;/span&gt;(positive_int, null)" style="text;strokeColor=none;fillColor=none;align=left;verticalAlign=middle;spacingLeft=4;spacingRight=4;overflow=hidden;points=[[0,0.5],[1,0.5]];portConstraint=eastwest;rotatable=0;whiteSpace=wrap;html=1;" vertex="1" parent="70L6qFqrPIOr7-39Y_Ha-11">
          <mxGeometry y="140" width="290" height="30" as="geometry" />
        </mxCell>
        <mxCell id="70L6qFqrPIOr7-39Y_Ha-63" value="description: (json, null)" style="text;strokeColor=none;fillColor=none;align=left;verticalAlign=middle;spacingLeft=4;spacingRight=4;overflow=hidden;points=[[0,0.5],[1,0.5]];portConstraint=eastwest;rotatable=0;whiteSpace=wrap;html=1;" vertex="1" parent="70L6qFqrPIOr7-39Y_Ha-11">
          <mxGeometry y="170" width="290" height="30" as="geometry" />
        </mxCell>
        <mxCell id="70L6qFqrPIOr7-39Y_Ha-17" value="user_product" style="swimlane;fontStyle=0;childLayout=stackLayout;horizontal=1;startSize=30;horizontalStack=0;resizeParent=1;resizeParentMax=0;resizeLast=0;collapsible=1;marginBottom=0;whiteSpace=wrap;html=1;" vertex="1" parent="1">
          <mxGeometry x="350" y="810" width="140" height="90" as="geometry" />
        </mxCell>
        <mxCell id="70L6qFqrPIOr7-39Y_Ha-18" value="user_id&lt;span style=&quot;white-space: pre;&quot;&gt;&#x9;&lt;/span&gt;(fk)" style="text;strokeColor=none;fillColor=none;align=left;verticalAlign=middle;spacingLeft=4;spacingRight=4;overflow=hidden;points=[[0,0.5],[1,0.5]];portConstraint=eastwest;rotatable=0;whiteSpace=wrap;html=1;" vertex="1" parent="70L6qFqrPIOr7-39Y_Ha-17">
          <mxGeometry y="30" width="140" height="30" as="geometry" />
        </mxCell>
        <mxCell id="70L6qFqrPIOr7-39Y_Ha-19" value="product_id&lt;span style=&quot;white-space: pre;&quot;&gt;&#x9;&lt;/span&gt;(fk)" style="text;strokeColor=none;fillColor=none;align=left;verticalAlign=middle;spacingLeft=4;spacingRight=4;overflow=hidden;points=[[0,0.5],[1,0.5]];portConstraint=eastwest;rotatable=0;whiteSpace=wrap;html=1;" vertex="1" parent="70L6qFqrPIOr7-39Y_Ha-17">
          <mxGeometry y="60" width="140" height="30" as="geometry" />
        </mxCell>
        <mxCell id="70L6qFqrPIOr7-39Y_Ha-21" style="edgeStyle=orthogonalEdgeStyle;rounded=0;orthogonalLoop=1;jettySize=auto;html=1;entryX=0;entryY=0.5;entryDx=0;entryDy=0;" edge="1" parent="1" source="70L6qFqrPIOr7-39Y_Ha-2" target="70L6qFqrPIOr7-39Y_Ha-18">
          <mxGeometry relative="1" as="geometry" />
        </mxCell>
        <mxCell id="70L6qFqrPIOr7-39Y_Ha-25" style="edgeStyle=orthogonalEdgeStyle;rounded=0;orthogonalLoop=1;jettySize=auto;html=1;entryX=1;entryY=0.5;entryDx=0;entryDy=0;" edge="1" parent="1" source="70L6qFqrPIOr7-39Y_Ha-15" target="70L6qFqrPIOr7-39Y_Ha-19">
          <mxGeometry relative="1" as="geometry" />
        </mxCell>
        <mxCell id="70L6qFqrPIOr7-39Y_Ha-27" value="Admin" style="swimlane;fontStyle=0;childLayout=stackLayout;horizontal=1;startSize=30;horizontalStack=0;resizeParent=1;resizeParentMax=0;resizeLast=0;collapsible=1;marginBottom=0;whiteSpace=wrap;html=1;" vertex="1" parent="1">
          <mxGeometry x="305" y="1000" width="230" height="140" as="geometry" />
        </mxCell>
        <mxCell id="70L6qFqrPIOr7-39Y_Ha-28" value="id &lt;span style=&quot;white-space: pre;&quot;&gt;&#x9;&lt;/span&gt;(autoinc., index, uniq, pk, int)" style="text;strokeColor=none;fillColor=none;align=left;verticalAlign=middle;spacingLeft=4;spacingRight=4;overflow=hidden;points=[[0,0.5],[1,0.5]];portConstraint=eastwest;rotatable=0;whiteSpace=wrap;html=1;" vertex="1" parent="70L6qFqrPIOr7-39Y_Ha-27">
          <mxGeometry y="30" width="230" height="50" as="geometry" />
        </mxCell>
        <mxCell id="70L6qFqrPIOr7-39Y_Ha-29" value="name&lt;span style=&quot;white-space: pre;&quot;&gt;&#x9;&lt;/span&gt;(char 225, uniq)" style="text;strokeColor=none;fillColor=none;align=left;verticalAlign=middle;spacingLeft=4;spacingRight=4;overflow=hidden;points=[[0,0.5],[1,0.5]];portConstraint=eastwest;rotatable=0;whiteSpace=wrap;html=1;" vertex="1" parent="70L6qFqrPIOr7-39Y_Ha-27">
          <mxGeometry y="80" width="230" height="30" as="geometry" />
        </mxCell>
        <mxCell id="70L6qFqrPIOr7-39Y_Ha-31" value="password (char 225, uniq)" style="text;strokeColor=none;fillColor=none;align=left;verticalAlign=middle;spacingLeft=4;spacingRight=4;overflow=hidden;points=[[0,0.5],[1,0.5]];portConstraint=eastwest;rotatable=0;whiteSpace=wrap;html=1;" vertex="1" parent="70L6qFqrPIOr7-39Y_Ha-27">
          <mxGeometry y="110" width="230" height="30" as="geometry" />
        </mxCell>
        <mxCell id="70L6qFqrPIOr7-39Y_Ha-33" value="bd(postgresql)" style="text;html=1;strokeColor=none;fillColor=none;align=center;verticalAlign=middle;whiteSpace=wrap;rounded=0;fontSize=29;" vertex="1" parent="1">
          <mxGeometry x="670" y="810" width="210" height="70" as="geometry" />
        </mxCell>
        <mxCell id="70L6qFqrPIOr7-39Y_Ha-34" value="UserRepository" style="swimlane;fontStyle=0;childLayout=stackLayout;horizontal=1;startSize=30;horizontalStack=0;resizeParent=1;resizeParentMax=0;resizeLast=0;collapsible=1;marginBottom=0;whiteSpace=wrap;html=1;" vertex="1" parent="1">
          <mxGeometry x="120" y="240" width="140" height="150" as="geometry" />
        </mxCell>
        <mxCell id="70L6qFqrPIOr7-39Y_Ha-35" value="get" style="text;strokeColor=none;fillColor=none;align=left;verticalAlign=middle;spacingLeft=4;spacingRight=4;overflow=hidden;points=[[0,0.5],[1,0.5]];portConstraint=eastwest;rotatable=0;whiteSpace=wrap;html=1;" vertex="1" parent="70L6qFqrPIOr7-39Y_Ha-34">
          <mxGeometry y="30" width="140" height="30" as="geometry" />
        </mxCell>
        <mxCell id="70L6qFqrPIOr7-39Y_Ha-36" value="post" style="text;strokeColor=none;fillColor=none;align=left;verticalAlign=middle;spacingLeft=4;spacingRight=4;overflow=hidden;points=[[0,0.5],[1,0.5]];portConstraint=eastwest;rotatable=0;whiteSpace=wrap;html=1;" vertex="1" parent="70L6qFqrPIOr7-39Y_Ha-34">
          <mxGeometry y="60" width="140" height="30" as="geometry" />
        </mxCell>
        <mxCell id="70L6qFqrPIOr7-39Y_Ha-37" value="patch" style="text;strokeColor=none;fillColor=none;align=left;verticalAlign=middle;spacingLeft=4;spacingRight=4;overflow=hidden;points=[[0,0.5],[1,0.5]];portConstraint=eastwest;rotatable=0;whiteSpace=wrap;html=1;" vertex="1" parent="70L6qFqrPIOr7-39Y_Ha-34">
          <mxGeometry y="90" width="140" height="30" as="geometry" />
        </mxCell>
        <mxCell id="70L6qFqrPIOr7-39Y_Ha-39" value="delete" style="text;strokeColor=none;fillColor=none;align=left;verticalAlign=middle;spacingLeft=4;spacingRight=4;overflow=hidden;points=[[0,0.5],[1,0.5]];portConstraint=eastwest;rotatable=0;whiteSpace=wrap;html=1;" vertex="1" parent="70L6qFqrPIOr7-39Y_Ha-34">
          <mxGeometry y="120" width="140" height="30" as="geometry" />
        </mxCell>
        <mxCell id="70L6qFqrPIOr7-39Y_Ha-40" value="ProductRepository" style="swimlane;fontStyle=0;childLayout=stackLayout;horizontal=1;startSize=30;horizontalStack=0;resizeParent=1;resizeParentMax=0;resizeLast=0;collapsible=1;marginBottom=0;whiteSpace=wrap;html=1;" vertex="1" parent="1">
          <mxGeometry x="600" y="240" width="140" height="150" as="geometry" />
        </mxCell>
        <mxCell id="70L6qFqrPIOr7-39Y_Ha-41" value="get" style="text;strokeColor=none;fillColor=none;align=left;verticalAlign=middle;spacingLeft=4;spacingRight=4;overflow=hidden;points=[[0,0.5],[1,0.5]];portConstraint=eastwest;rotatable=0;whiteSpace=wrap;html=1;" vertex="1" parent="70L6qFqrPIOr7-39Y_Ha-40">
          <mxGeometry y="30" width="140" height="30" as="geometry" />
        </mxCell>
        <mxCell id="70L6qFqrPIOr7-39Y_Ha-42" value="post" style="text;strokeColor=none;fillColor=none;align=left;verticalAlign=middle;spacingLeft=4;spacingRight=4;overflow=hidden;points=[[0,0.5],[1,0.5]];portConstraint=eastwest;rotatable=0;whiteSpace=wrap;html=1;" vertex="1" parent="70L6qFqrPIOr7-39Y_Ha-40">
          <mxGeometry y="60" width="140" height="30" as="geometry" />
        </mxCell>
        <mxCell id="70L6qFqrPIOr7-39Y_Ha-43" value="patch" style="text;strokeColor=none;fillColor=none;align=left;verticalAlign=middle;spacingLeft=4;spacingRight=4;overflow=hidden;points=[[0,0.5],[1,0.5]];portConstraint=eastwest;rotatable=0;whiteSpace=wrap;html=1;" vertex="1" parent="70L6qFqrPIOr7-39Y_Ha-40">
          <mxGeometry y="90" width="140" height="30" as="geometry" />
        </mxCell>
        <mxCell id="70L6qFqrPIOr7-39Y_Ha-44" value="delete" style="text;strokeColor=none;fillColor=none;align=left;verticalAlign=middle;spacingLeft=4;spacingRight=4;overflow=hidden;points=[[0,0.5],[1,0.5]];portConstraint=eastwest;rotatable=0;whiteSpace=wrap;html=1;" vertex="1" parent="70L6qFqrPIOr7-39Y_Ha-40">
          <mxGeometry y="120" width="140" height="30" as="geometry" />
        </mxCell>
        <mxCell id="70L6qFqrPIOr7-39Y_Ha-50" value="queries to bd" style="text;html=1;strokeColor=none;fillColor=none;align=center;verticalAlign=middle;whiteSpace=wrap;rounded=0;" vertex="1" parent="1">
          <mxGeometry y="200" width="100" height="30" as="geometry" />
        </mxCell>
        <mxCell id="70L6qFqrPIOr7-39Y_Ha-68" style="edgeStyle=orthogonalEdgeStyle;rounded=0;orthogonalLoop=1;jettySize=auto;html=1;entryX=0.5;entryY=0;entryDx=0;entryDy=0;" edge="1" parent="1" source="70L6qFqrPIOr7-39Y_Ha-51" target="70L6qFqrPIOr7-39Y_Ha-34">
          <mxGeometry relative="1" as="geometry" />
        </mxCell>
        <mxCell id="70L6qFqrPIOr7-39Y_Ha-51" value="UserSchema" style="swimlane;fontStyle=0;childLayout=stackLayout;horizontal=1;startSize=30;horizontalStack=0;resizeParent=1;resizeParentMax=0;resizeLast=0;collapsible=1;marginBottom=0;whiteSpace=wrap;html=1;" vertex="1" parent="1">
          <mxGeometry x="120" y="20" width="140" height="120" as="geometry" />
        </mxCell>
        <mxCell id="70L6qFqrPIOr7-39Y_Ha-52" value="login: str" style="text;strokeColor=none;fillColor=none;align=left;verticalAlign=middle;spacingLeft=4;spacingRight=4;overflow=hidden;points=[[0,0.5],[1,0.5]];portConstraint=eastwest;rotatable=0;whiteSpace=wrap;html=1;" vertex="1" parent="70L6qFqrPIOr7-39Y_Ha-51">
          <mxGeometry y="30" width="140" height="30" as="geometry" />
        </mxCell>
        <mxCell id="70L6qFqrPIOr7-39Y_Ha-53" value="name: str" style="text;strokeColor=none;fillColor=none;align=left;verticalAlign=middle;spacingLeft=4;spacingRight=4;overflow=hidden;points=[[0,0.5],[1,0.5]];portConstraint=eastwest;rotatable=0;whiteSpace=wrap;html=1;" vertex="1" parent="70L6qFqrPIOr7-39Y_Ha-51">
          <mxGeometry y="60" width="140" height="30" as="geometry" />
        </mxCell>
        <mxCell id="70L6qFqrPIOr7-39Y_Ha-54" value="password: str" style="text;strokeColor=none;fillColor=none;align=left;verticalAlign=middle;spacingLeft=4;spacingRight=4;overflow=hidden;points=[[0,0.5],[1,0.5]];portConstraint=eastwest;rotatable=0;whiteSpace=wrap;html=1;" vertex="1" parent="70L6qFqrPIOr7-39Y_Ha-51">
          <mxGeometry y="90" width="140" height="30" as="geometry" />
        </mxCell>
        <mxCell id="70L6qFqrPIOr7-39Y_Ha-67" style="edgeStyle=orthogonalEdgeStyle;rounded=0;orthogonalLoop=1;jettySize=auto;html=1;entryX=0.5;entryY=0;entryDx=0;entryDy=0;" edge="1" parent="1" source="70L6qFqrPIOr7-39Y_Ha-59" target="70L6qFqrPIOr7-39Y_Ha-40">
          <mxGeometry relative="1" as="geometry" />
        </mxCell>
        <mxCell id="70L6qFqrPIOr7-39Y_Ha-59" value="ProductSchema" style="swimlane;fontStyle=0;childLayout=stackLayout;horizontal=1;startSize=30;horizontalStack=0;resizeParent=1;resizeParentMax=0;resizeLast=0;collapsible=1;marginBottom=0;whiteSpace=wrap;html=1;" vertex="1" parent="1">
          <mxGeometry x="600" y="10" width="140" height="150" as="geometry" />
        </mxCell>
        <mxCell id="70L6qFqrPIOr7-39Y_Ha-60" value="name: str" style="text;strokeColor=none;fillColor=none;align=left;verticalAlign=middle;spacingLeft=4;spacingRight=4;overflow=hidden;points=[[0,0.5],[1,0.5]];portConstraint=eastwest;rotatable=0;whiteSpace=wrap;html=1;" vertex="1" parent="70L6qFqrPIOr7-39Y_Ha-59">
          <mxGeometry y="30" width="140" height="30" as="geometry" />
        </mxCell>
        <mxCell id="70L6qFqrPIOr7-39Y_Ha-61" value="price: null" style="text;strokeColor=none;fillColor=none;align=left;verticalAlign=middle;spacingLeft=4;spacingRight=4;overflow=hidden;points=[[0,0.5],[1,0.5]];portConstraint=eastwest;rotatable=0;whiteSpace=wrap;html=1;" vertex="1" parent="70L6qFqrPIOr7-39Y_Ha-59">
          <mxGeometry y="60" width="140" height="30" as="geometry" />
        </mxCell>
        <mxCell id="70L6qFqrPIOr7-39Y_Ha-62" value="count: int" style="text;strokeColor=none;fillColor=none;align=left;verticalAlign=middle;spacingLeft=4;spacingRight=4;overflow=hidden;points=[[0,0.5],[1,0.5]];portConstraint=eastwest;rotatable=0;whiteSpace=wrap;html=1;" vertex="1" parent="70L6qFqrPIOr7-39Y_Ha-59">
          <mxGeometry y="90" width="140" height="30" as="geometry" />
        </mxCell>
        <mxCell id="70L6qFqrPIOr7-39Y_Ha-64" value="description: dict" style="text;strokeColor=none;fillColor=none;align=left;verticalAlign=middle;spacingLeft=4;spacingRight=4;overflow=hidden;points=[[0,0.5],[1,0.5]];portConstraint=eastwest;rotatable=0;whiteSpace=wrap;html=1;" vertex="1" parent="70L6qFqrPIOr7-39Y_Ha-59">
          <mxGeometry y="120" width="140" height="30" as="geometry" />
        </mxCell>
        <mxCell id="70L6qFqrPIOr7-39Y_Ha-69" value="Meta" style="swimlane;fontStyle=0;childLayout=stackLayout;horizontal=1;startSize=30;horizontalStack=0;resizeParent=1;resizeParentMax=0;resizeLast=0;collapsible=1;marginBottom=0;whiteSpace=wrap;html=1;" vertex="1" parent="1">
          <mxGeometry x="230" y="1230" width="254" height="170" as="geometry" />
        </mxCell>
        <mxCell id="70L6qFqrPIOr7-39Y_Ha-89" value="id &lt;span style=&quot;white-space: pre;&quot;&gt;&#x9;&lt;/span&gt;(autoinc., index, uniq, pk, int)" style="text;strokeColor=none;fillColor=none;align=left;verticalAlign=middle;spacingLeft=4;spacingRight=4;overflow=hidden;points=[[0,0.5],[1,0.5]];portConstraint=eastwest;rotatable=0;whiteSpace=wrap;html=1;" vertex="1" parent="70L6qFqrPIOr7-39Y_Ha-69">
          <mxGeometry y="30" width="254" height="50" as="geometry" />
        </mxCell>
        <mxCell id="70L6qFqrPIOr7-39Y_Ha-70" value="h1&lt;span style=&quot;white-space: pre;&quot;&gt;&#x9;&lt;/span&gt;(char 225)" style="text;strokeColor=none;fillColor=none;align=left;verticalAlign=middle;spacingLeft=4;spacingRight=4;overflow=hidden;points=[[0,0.5],[1,0.5]];portConstraint=eastwest;rotatable=0;whiteSpace=wrap;html=1;" vertex="1" parent="70L6qFqrPIOr7-39Y_Ha-69">
          <mxGeometry y="80" width="254" height="30" as="geometry" />
        </mxCell>
        <mxCell id="70L6qFqrPIOr7-39Y_Ha-71" value="title&lt;span style=&quot;white-space: pre;&quot;&gt;&#x9;&lt;/span&gt;(char 225)" style="text;strokeColor=none;fillColor=none;align=left;verticalAlign=middle;spacingLeft=4;spacingRight=4;overflow=hidden;points=[[0,0.5],[1,0.5]];portConstraint=eastwest;rotatable=0;whiteSpace=wrap;html=1;" vertex="1" parent="70L6qFqrPIOr7-39Y_Ha-69">
          <mxGeometry y="110" width="254" height="30" as="geometry" />
        </mxCell>
        <mxCell id="70L6qFqrPIOr7-39Y_Ha-72" value="description&lt;span style=&quot;white-space: pre;&quot;&gt;&#x9;&lt;/span&gt;(json)" style="text;strokeColor=none;fillColor=none;align=left;verticalAlign=middle;spacingLeft=4;spacingRight=4;overflow=hidden;points=[[0,0.5],[1,0.5]];portConstraint=eastwest;rotatable=0;whiteSpace=wrap;html=1;" vertex="1" parent="70L6qFqrPIOr7-39Y_Ha-69">
          <mxGeometry y="140" width="254" height="30" as="geometry" />
        </mxCell>
        <mxCell id="70L6qFqrPIOr7-39Y_Ha-74" value="meta_product" style="swimlane;fontStyle=0;childLayout=stackLayout;horizontal=1;startSize=30;horizontalStack=0;resizeParent=1;resizeParentMax=0;resizeLast=0;collapsible=1;marginBottom=0;whiteSpace=wrap;html=1;" vertex="1" parent="1">
          <mxGeometry x="650" y="1250" width="140" height="90" as="geometry" />
        </mxCell>
        <mxCell id="70L6qFqrPIOr7-39Y_Ha-75" value="meta_id" style="text;strokeColor=none;fillColor=none;align=left;verticalAlign=middle;spacingLeft=4;spacingRight=4;overflow=hidden;points=[[0,0.5],[1,0.5]];portConstraint=eastwest;rotatable=0;whiteSpace=wrap;html=1;" vertex="1" parent="70L6qFqrPIOr7-39Y_Ha-74">
          <mxGeometry y="30" width="140" height="30" as="geometry" />
        </mxCell>
        <mxCell id="70L6qFqrPIOr7-39Y_Ha-76" value="product_id" style="text;strokeColor=none;fillColor=none;align=left;verticalAlign=middle;spacingLeft=4;spacingRight=4;overflow=hidden;points=[[0,0.5],[1,0.5]];portConstraint=eastwest;rotatable=0;whiteSpace=wrap;html=1;" vertex="1" parent="70L6qFqrPIOr7-39Y_Ha-74">
          <mxGeometry y="60" width="140" height="30" as="geometry" />
        </mxCell>
        <mxCell id="70L6qFqrPIOr7-39Y_Ha-78" style="edgeStyle=orthogonalEdgeStyle;rounded=0;orthogonalLoop=1;jettySize=auto;html=1;entryX=0;entryY=0.5;entryDx=0;entryDy=0;" edge="1" parent="1" target="70L6qFqrPIOr7-39Y_Ha-75">
          <mxGeometry relative="1" as="geometry">
            <mxPoint x="484" y="1275" as="sourcePoint" />
          </mxGeometry>
        </mxCell>
        <mxCell id="70L6qFqrPIOr7-39Y_Ha-79" style="edgeStyle=orthogonalEdgeStyle;rounded=0;orthogonalLoop=1;jettySize=auto;html=1;entryX=1;entryY=0.5;entryDx=0;entryDy=0;" edge="1" parent="1" source="70L6qFqrPIOr7-39Y_Ha-15" target="70L6qFqrPIOr7-39Y_Ha-76">
          <mxGeometry relative="1" as="geometry" />
        </mxCell>
        <mxCell id="70L6qFqrPIOr7-39Y_Ha-80" value="MetaRepository" style="swimlane;fontStyle=0;childLayout=stackLayout;horizontal=1;startSize=30;horizontalStack=0;resizeParent=1;resizeParentMax=0;resizeLast=0;collapsible=1;marginBottom=0;whiteSpace=wrap;html=1;" vertex="1" parent="1">
          <mxGeometry x="380" y="240" width="140" height="150" as="geometry" />
        </mxCell>
        <mxCell id="70L6qFqrPIOr7-39Y_Ha-81" value="get" style="text;strokeColor=none;fillColor=none;align=left;verticalAlign=middle;spacingLeft=4;spacingRight=4;overflow=hidden;points=[[0,0.5],[1,0.5]];portConstraint=eastwest;rotatable=0;whiteSpace=wrap;html=1;" vertex="1" parent="70L6qFqrPIOr7-39Y_Ha-80">
          <mxGeometry y="30" width="140" height="30" as="geometry" />
        </mxCell>
        <mxCell id="70L6qFqrPIOr7-39Y_Ha-82" value="post" style="text;strokeColor=none;fillColor=none;align=left;verticalAlign=middle;spacingLeft=4;spacingRight=4;overflow=hidden;points=[[0,0.5],[1,0.5]];portConstraint=eastwest;rotatable=0;whiteSpace=wrap;html=1;" vertex="1" parent="70L6qFqrPIOr7-39Y_Ha-80">
          <mxGeometry y="60" width="140" height="30" as="geometry" />
        </mxCell>
        <mxCell id="70L6qFqrPIOr7-39Y_Ha-83" value="patch" style="text;strokeColor=none;fillColor=none;align=left;verticalAlign=middle;spacingLeft=4;spacingRight=4;overflow=hidden;points=[[0,0.5],[1,0.5]];portConstraint=eastwest;rotatable=0;whiteSpace=wrap;html=1;" vertex="1" parent="70L6qFqrPIOr7-39Y_Ha-80">
          <mxGeometry y="90" width="140" height="30" as="geometry" />
        </mxCell>
        <mxCell id="70L6qFqrPIOr7-39Y_Ha-84" value="delete" style="text;strokeColor=none;fillColor=none;align=left;verticalAlign=middle;spacingLeft=4;spacingRight=4;overflow=hidden;points=[[0,0.5],[1,0.5]];portConstraint=eastwest;rotatable=0;whiteSpace=wrap;html=1;" vertex="1" parent="70L6qFqrPIOr7-39Y_Ha-80">
          <mxGeometry y="120" width="140" height="30" as="geometry" />
        </mxCell>
        <mxCell id="70L6qFqrPIOr7-39Y_Ha-91" style="edgeStyle=orthogonalEdgeStyle;rounded=0;orthogonalLoop=1;jettySize=auto;html=1;entryX=0.5;entryY=0;entryDx=0;entryDy=0;" edge="1" parent="1" source="70L6qFqrPIOr7-39Y_Ha-85" target="70L6qFqrPIOr7-39Y_Ha-80">
          <mxGeometry relative="1" as="geometry" />
        </mxCell>
        <mxCell id="70L6qFqrPIOr7-39Y_Ha-85" value="MetaSchema" style="swimlane;fontStyle=0;childLayout=stackLayout;horizontal=1;startSize=30;horizontalStack=0;resizeParent=1;resizeParentMax=0;resizeLast=0;collapsible=1;marginBottom=0;whiteSpace=wrap;html=1;" vertex="1" parent="1">
          <mxGeometry x="380" y="20" width="140" height="120" as="geometry" />
        </mxCell>
        <mxCell id="70L6qFqrPIOr7-39Y_Ha-86" value="h1: str" style="text;strokeColor=none;fillColor=none;align=left;verticalAlign=middle;spacingLeft=4;spacingRight=4;overflow=hidden;points=[[0,0.5],[1,0.5]];portConstraint=eastwest;rotatable=0;whiteSpace=wrap;html=1;" vertex="1" parent="70L6qFqrPIOr7-39Y_Ha-85">
          <mxGeometry y="30" width="140" height="30" as="geometry" />
        </mxCell>
        <mxCell id="70L6qFqrPIOr7-39Y_Ha-87" value="title: str" style="text;strokeColor=none;fillColor=none;align=left;verticalAlign=middle;spacingLeft=4;spacingRight=4;overflow=hidden;points=[[0,0.5],[1,0.5]];portConstraint=eastwest;rotatable=0;whiteSpace=wrap;html=1;" vertex="1" parent="70L6qFqrPIOr7-39Y_Ha-85">
          <mxGeometry y="60" width="140" height="30" as="geometry" />
        </mxCell>
        <mxCell id="70L6qFqrPIOr7-39Y_Ha-88" value="description: dict" style="text;strokeColor=none;fillColor=none;align=left;verticalAlign=middle;spacingLeft=4;spacingRight=4;overflow=hidden;points=[[0,0.5],[1,0.5]];portConstraint=eastwest;rotatable=0;whiteSpace=wrap;html=1;" vertex="1" parent="70L6qFqrPIOr7-39Y_Ha-85">
          <mxGeometry y="90" width="140" height="30" as="geometry" />
        </mxCell>
      </root>
    </mxGraphModel>
  </diagram>
</mxfile>
